<mxfile host="Electron" agent="Mozilla/5.0 (Windows NT 10.0; Win64; x64) AppleWebKit/537.36 (KHTML, like Gecko) draw.io/26.2.2 Chrome/134.0.6998.178 Electron/35.1.2 Safari/537.36" version="26.2.2">
  <diagram name="ページ1" id="0L1aFoJDPcLWSLS2n8Kc">
    <mxGraphModel dx="990" dy="931" grid="1" gridSize="10" guides="1" tooltips="1" connect="1" arrows="1" fold="1" page="1" pageScale="1" pageWidth="827" pageHeight="1169" background="none" math="0" shadow="0">
      <root>
        <mxCell id="0" />
        <mxCell id="1" parent="0" />
        <mxCell id="cFsQP5BHmlhc9Tulh3zu-2" value="" style="edgeStyle=entityRelationEdgeStyle;endArrow=ERzeroToMany;startArrow=ERone;endFill=1;startFill=0;labelBackgroundColor=none;strokeColor=#006658;fontColor=default;" parent="1" source="cFsQP5BHmlhc9Tulh3zu-4" target="cFsQP5BHmlhc9Tulh3zu-17" edge="1">
          <mxGeometry width="100" height="100" relative="1" as="geometry">
            <mxPoint x="389" y="540" as="sourcePoint" />
            <mxPoint x="449" y="565" as="targetPoint" />
            <Array as="points">
              <mxPoint x="830" y="310" />
            </Array>
          </mxGeometry>
        </mxCell>
        <mxCell id="cFsQP5BHmlhc9Tulh3zu-23" value="Users" style="shape=table;startSize=30;container=1;collapsible=1;childLayout=tableLayout;fixedRows=1;rowLines=0;fontStyle=1;align=center;resizeLast=1;labelBackgroundColor=none;fillColor=#21C0A5;strokeColor=#006658;fontColor=#5C5C5C;" parent="1" vertex="1">
          <mxGeometry x="109" y="480" width="201" height="210" as="geometry" />
        </mxCell>
        <mxCell id="cFsQP5BHmlhc9Tulh3zu-24" value="" style="shape=partialRectangle;collapsible=0;dropTarget=0;pointerEvents=0;fillColor=none;points=[[0,0.5],[1,0.5]];portConstraint=eastwest;top=0;left=0;right=0;bottom=1;labelBackgroundColor=none;strokeColor=#006658;fontColor=#5C5C5C;" parent="cFsQP5BHmlhc9Tulh3zu-23" vertex="1">
          <mxGeometry y="30" width="201" height="30" as="geometry" />
        </mxCell>
        <mxCell id="QDBqpaRgIIuY31XScvG4-22" value="PK" style="shape=partialRectangle;overflow=hidden;connectable=0;fillColor=none;top=0;left=0;bottom=0;right=0;fontStyle=1;labelBackgroundColor=none;strokeColor=#006658;fontColor=#5C5C5C;" parent="cFsQP5BHmlhc9Tulh3zu-24" vertex="1">
          <mxGeometry width="30" height="30" as="geometry">
            <mxRectangle width="30" height="30" as="alternateBounds" />
          </mxGeometry>
        </mxCell>
        <mxCell id="cFsQP5BHmlhc9Tulh3zu-25" value="int" style="shape=partialRectangle;overflow=hidden;connectable=0;fillColor=none;top=0;left=0;bottom=0;right=0;fontStyle=1;labelBackgroundColor=none;strokeColor=#006658;fontColor=#5C5C5C;" parent="cFsQP5BHmlhc9Tulh3zu-24" vertex="1">
          <mxGeometry x="30" width="51" height="30" as="geometry">
            <mxRectangle width="51" height="30" as="alternateBounds" />
          </mxGeometry>
        </mxCell>
        <mxCell id="cFsQP5BHmlhc9Tulh3zu-26" value="id" style="shape=partialRectangle;overflow=hidden;connectable=0;fillColor=none;top=0;left=0;bottom=0;right=0;align=left;spacingLeft=6;fontStyle=5;labelBackgroundColor=none;strokeColor=#006658;fontColor=#5C5C5C;" parent="cFsQP5BHmlhc9Tulh3zu-24" vertex="1">
          <mxGeometry x="81" width="120" height="30" as="geometry">
            <mxRectangle width="120" height="30" as="alternateBounds" />
          </mxGeometry>
        </mxCell>
        <mxCell id="cFsQP5BHmlhc9Tulh3zu-27" value="" style="shape=partialRectangle;collapsible=0;dropTarget=0;pointerEvents=0;fillColor=none;points=[[0,0.5],[1,0.5]];portConstraint=eastwest;top=0;left=0;right=0;bottom=0;labelBackgroundColor=none;strokeColor=#006658;fontColor=#5C5C5C;" parent="cFsQP5BHmlhc9Tulh3zu-23" vertex="1">
          <mxGeometry y="60" width="201" height="30" as="geometry" />
        </mxCell>
        <mxCell id="QDBqpaRgIIuY31XScvG4-23" style="shape=partialRectangle;overflow=hidden;connectable=0;fillColor=none;top=0;left=0;bottom=0;right=0;labelBackgroundColor=none;strokeColor=#006658;fontColor=#5C5C5C;" parent="cFsQP5BHmlhc9Tulh3zu-27" vertex="1">
          <mxGeometry width="30" height="30" as="geometry">
            <mxRectangle width="30" height="30" as="alternateBounds" />
          </mxGeometry>
        </mxCell>
        <mxCell id="cFsQP5BHmlhc9Tulh3zu-28" value="string" style="shape=partialRectangle;overflow=hidden;connectable=0;fillColor=none;top=0;left=0;bottom=0;right=0;labelBackgroundColor=none;strokeColor=#006658;fontColor=#5C5C5C;" parent="cFsQP5BHmlhc9Tulh3zu-27" vertex="1">
          <mxGeometry x="30" width="51" height="30" as="geometry">
            <mxRectangle width="51" height="30" as="alternateBounds" />
          </mxGeometry>
        </mxCell>
        <mxCell id="cFsQP5BHmlhc9Tulh3zu-29" value="name" style="shape=partialRectangle;overflow=hidden;connectable=0;fillColor=none;top=0;left=0;bottom=0;right=0;align=left;spacingLeft=6;labelBackgroundColor=none;strokeColor=#006658;fontColor=#5C5C5C;" parent="cFsQP5BHmlhc9Tulh3zu-27" vertex="1">
          <mxGeometry x="81" width="120" height="30" as="geometry">
            <mxRectangle width="120" height="30" as="alternateBounds" />
          </mxGeometry>
        </mxCell>
        <mxCell id="cFsQP5BHmlhc9Tulh3zu-30" value="" style="shape=partialRectangle;collapsible=0;dropTarget=0;pointerEvents=0;fillColor=none;points=[[0,0.5],[1,0.5]];portConstraint=eastwest;top=0;left=0;right=0;bottom=0;labelBackgroundColor=none;strokeColor=#006658;fontColor=#5C5C5C;" parent="cFsQP5BHmlhc9Tulh3zu-23" vertex="1">
          <mxGeometry y="90" width="201" height="30" as="geometry" />
        </mxCell>
        <mxCell id="QDBqpaRgIIuY31XScvG4-24" style="shape=partialRectangle;overflow=hidden;connectable=0;fillColor=none;top=0;left=0;bottom=0;right=0;labelBackgroundColor=none;strokeColor=#006658;fontColor=#5C5C5C;" parent="cFsQP5BHmlhc9Tulh3zu-30" vertex="1">
          <mxGeometry width="30" height="30" as="geometry">
            <mxRectangle width="30" height="30" as="alternateBounds" />
          </mxGeometry>
        </mxCell>
        <mxCell id="cFsQP5BHmlhc9Tulh3zu-31" value="string" style="shape=partialRectangle;overflow=hidden;connectable=0;fillColor=none;top=0;left=0;bottom=0;right=0;labelBackgroundColor=none;strokeColor=#006658;fontColor=#5C5C5C;" parent="cFsQP5BHmlhc9Tulh3zu-30" vertex="1">
          <mxGeometry x="30" width="51" height="30" as="geometry">
            <mxRectangle width="51" height="30" as="alternateBounds" />
          </mxGeometry>
        </mxCell>
        <mxCell id="cFsQP5BHmlhc9Tulh3zu-32" value="email" style="shape=partialRectangle;overflow=hidden;connectable=0;fillColor=none;top=0;left=0;bottom=0;right=0;align=left;spacingLeft=6;labelBackgroundColor=none;strokeColor=#006658;fontColor=#5C5C5C;" parent="cFsQP5BHmlhc9Tulh3zu-30" vertex="1">
          <mxGeometry x="81" width="120" height="30" as="geometry">
            <mxRectangle width="120" height="30" as="alternateBounds" />
          </mxGeometry>
        </mxCell>
        <mxCell id="cFsQP5BHmlhc9Tulh3zu-33" value="" style="shape=partialRectangle;collapsible=0;dropTarget=0;pointerEvents=0;fillColor=none;points=[[0,0.5],[1,0.5]];portConstraint=eastwest;top=0;left=0;right=0;bottom=0;labelBackgroundColor=none;strokeColor=#006658;fontColor=#5C5C5C;" parent="cFsQP5BHmlhc9Tulh3zu-23" vertex="1">
          <mxGeometry y="120" width="201" height="30" as="geometry" />
        </mxCell>
        <mxCell id="QDBqpaRgIIuY31XScvG4-25" style="shape=partialRectangle;overflow=hidden;connectable=0;fillColor=none;top=0;left=0;bottom=0;right=0;labelBackgroundColor=none;strokeColor=#006658;fontColor=#5C5C5C;" parent="cFsQP5BHmlhc9Tulh3zu-33" vertex="1">
          <mxGeometry width="30" height="30" as="geometry">
            <mxRectangle width="30" height="30" as="alternateBounds" />
          </mxGeometry>
        </mxCell>
        <mxCell id="cFsQP5BHmlhc9Tulh3zu-34" value="string" style="shape=partialRectangle;overflow=hidden;connectable=0;fillColor=none;top=0;left=0;bottom=0;right=0;labelBackgroundColor=none;strokeColor=#006658;fontColor=#5C5C5C;" parent="cFsQP5BHmlhc9Tulh3zu-33" vertex="1">
          <mxGeometry x="30" width="51" height="30" as="geometry">
            <mxRectangle width="51" height="30" as="alternateBounds" />
          </mxGeometry>
        </mxCell>
        <mxCell id="cFsQP5BHmlhc9Tulh3zu-35" value="encrypted_password" style="shape=partialRectangle;overflow=hidden;connectable=0;fillColor=none;top=0;left=0;bottom=0;right=0;align=left;spacingLeft=6;labelBackgroundColor=none;strokeColor=#006658;fontColor=#5C5C5C;" parent="cFsQP5BHmlhc9Tulh3zu-33" vertex="1">
          <mxGeometry x="81" width="120" height="30" as="geometry">
            <mxRectangle width="120" height="30" as="alternateBounds" />
          </mxGeometry>
        </mxCell>
        <mxCell id="qt74afErLi43HWbwG1_q-147" value="" style="shape=partialRectangle;collapsible=0;dropTarget=0;pointerEvents=0;fillColor=none;points=[[0,0.5],[1,0.5]];portConstraint=eastwest;top=0;left=0;right=0;bottom=0;labelBackgroundColor=none;strokeColor=#006658;fontColor=#5C5C5C;" parent="cFsQP5BHmlhc9Tulh3zu-23" vertex="1">
          <mxGeometry y="150" width="201" height="30" as="geometry" />
        </mxCell>
        <mxCell id="qt74afErLi43HWbwG1_q-148" style="shape=partialRectangle;overflow=hidden;connectable=0;fillColor=none;top=0;left=0;bottom=0;right=0;labelBackgroundColor=none;strokeColor=#006658;fontColor=#5C5C5C;" parent="qt74afErLi43HWbwG1_q-147" vertex="1">
          <mxGeometry width="30" height="30" as="geometry">
            <mxRectangle width="30" height="30" as="alternateBounds" />
          </mxGeometry>
        </mxCell>
        <mxCell id="qt74afErLi43HWbwG1_q-149" value="datetime" style="shape=partialRectangle;overflow=hidden;connectable=0;fillColor=none;top=0;left=0;bottom=0;right=0;labelBackgroundColor=none;strokeColor=#006658;fontColor=#5C5C5C;" parent="qt74afErLi43HWbwG1_q-147" vertex="1">
          <mxGeometry x="30" width="51" height="30" as="geometry">
            <mxRectangle width="51" height="30" as="alternateBounds" />
          </mxGeometry>
        </mxCell>
        <mxCell id="qt74afErLi43HWbwG1_q-150" value="created_at" style="shape=partialRectangle;overflow=hidden;connectable=0;fillColor=none;top=0;left=0;bottom=0;right=0;align=left;spacingLeft=6;labelBackgroundColor=none;strokeColor=#006658;fontColor=#5C5C5C;" parent="qt74afErLi43HWbwG1_q-147" vertex="1">
          <mxGeometry x="81" width="120" height="30" as="geometry">
            <mxRectangle width="120" height="30" as="alternateBounds" />
          </mxGeometry>
        </mxCell>
        <mxCell id="338NivXYfjlc3IKWi5lk-23" value="" style="shape=partialRectangle;collapsible=0;dropTarget=0;pointerEvents=0;fillColor=none;points=[[0,0.5],[1,0.5]];portConstraint=eastwest;top=0;left=0;right=0;bottom=0;labelBackgroundColor=none;strokeColor=#006658;fontColor=#5C5C5C;" parent="cFsQP5BHmlhc9Tulh3zu-23" vertex="1">
          <mxGeometry y="180" width="201" height="30" as="geometry" />
        </mxCell>
        <mxCell id="338NivXYfjlc3IKWi5lk-24" style="shape=partialRectangle;overflow=hidden;connectable=0;fillColor=none;top=0;left=0;bottom=0;right=0;labelBackgroundColor=none;strokeColor=#006658;fontColor=#5C5C5C;" parent="338NivXYfjlc3IKWi5lk-23" vertex="1">
          <mxGeometry width="30" height="30" as="geometry">
            <mxRectangle width="30" height="30" as="alternateBounds" />
          </mxGeometry>
        </mxCell>
        <mxCell id="338NivXYfjlc3IKWi5lk-25" value="datetime" style="shape=partialRectangle;overflow=hidden;connectable=0;fillColor=none;top=0;left=0;bottom=0;right=0;labelBackgroundColor=none;strokeColor=#006658;fontColor=#5C5C5C;" parent="338NivXYfjlc3IKWi5lk-23" vertex="1">
          <mxGeometry x="30" width="51" height="30" as="geometry">
            <mxRectangle width="51" height="30" as="alternateBounds" />
          </mxGeometry>
        </mxCell>
        <mxCell id="338NivXYfjlc3IKWi5lk-26" value="updated_at" style="shape=partialRectangle;overflow=hidden;connectable=0;fillColor=none;top=0;left=0;bottom=0;right=0;align=left;spacingLeft=6;labelBackgroundColor=none;strokeColor=#006658;fontColor=#5C5C5C;" parent="338NivXYfjlc3IKWi5lk-23" vertex="1">
          <mxGeometry x="81" width="120" height="30" as="geometry">
            <mxRectangle width="120" height="30" as="alternateBounds" />
          </mxGeometry>
        </mxCell>
        <mxCell id="cFsQP5BHmlhc9Tulh3zu-13" value="Search_histories" style="shape=table;startSize=30;container=1;collapsible=1;childLayout=tableLayout;fixedRows=1;rowLines=0;fontStyle=1;align=center;resizeLast=1;labelBackgroundColor=none;fillColor=#21C0A5;strokeColor=#006658;fontColor=#5C5C5C;" parent="1" vertex="1">
          <mxGeometry x="430" y="480" width="251" height="200" as="geometry" />
        </mxCell>
        <mxCell id="cFsQP5BHmlhc9Tulh3zu-14" value="" style="shape=partialRectangle;collapsible=0;dropTarget=0;pointerEvents=0;fillColor=none;points=[[0,0.5],[1,0.5]];portConstraint=eastwest;top=0;left=0;right=0;bottom=1;labelBackgroundColor=none;strokeColor=#006658;fontColor=#5C5C5C;" parent="cFsQP5BHmlhc9Tulh3zu-13" vertex="1">
          <mxGeometry y="30" width="251" height="30" as="geometry" />
        </mxCell>
        <mxCell id="cFsQP5BHmlhc9Tulh3zu-15" value="PK" style="shape=partialRectangle;overflow=hidden;connectable=0;fillColor=none;top=0;left=0;bottom=0;right=0;fontStyle=1;labelBackgroundColor=none;strokeColor=#006658;fontColor=#5C5C5C;" parent="cFsQP5BHmlhc9Tulh3zu-14" vertex="1">
          <mxGeometry width="30" height="30" as="geometry">
            <mxRectangle width="30" height="30" as="alternateBounds" />
          </mxGeometry>
        </mxCell>
        <mxCell id="QDBqpaRgIIuY31XScvG4-34" value="int" style="shape=partialRectangle;overflow=hidden;connectable=0;fillColor=none;top=0;left=0;bottom=0;right=0;align=left;spacingLeft=6;fontStyle=5;labelBackgroundColor=none;strokeColor=#006658;fontColor=#5C5C5C;" parent="cFsQP5BHmlhc9Tulh3zu-14" vertex="1">
          <mxGeometry x="30" width="61" height="30" as="geometry">
            <mxRectangle width="61" height="30" as="alternateBounds" />
          </mxGeometry>
        </mxCell>
        <mxCell id="cFsQP5BHmlhc9Tulh3zu-16" value="id" style="shape=partialRectangle;overflow=hidden;connectable=0;fillColor=none;top=0;left=0;bottom=0;right=0;align=left;spacingLeft=6;fontStyle=5;labelBackgroundColor=none;strokeColor=#006658;fontColor=#5C5C5C;" parent="cFsQP5BHmlhc9Tulh3zu-14" vertex="1">
          <mxGeometry x="91" width="160" height="30" as="geometry">
            <mxRectangle width="160" height="30" as="alternateBounds" />
          </mxGeometry>
        </mxCell>
        <mxCell id="cFsQP5BHmlhc9Tulh3zu-17" value="" style="shape=partialRectangle;collapsible=0;dropTarget=0;pointerEvents=0;fillColor=none;points=[[0,0.5],[1,0.5]];portConstraint=eastwest;top=0;left=0;right=0;bottom=0;labelBackgroundColor=none;strokeColor=#006658;fontColor=#5C5C5C;" parent="cFsQP5BHmlhc9Tulh3zu-13" vertex="1">
          <mxGeometry y="60" width="251" height="40" as="geometry" />
        </mxCell>
        <mxCell id="cFsQP5BHmlhc9Tulh3zu-18" value="FK1" style="shape=partialRectangle;overflow=hidden;connectable=0;fillColor=none;top=0;left=0;bottom=0;right=0;labelBackgroundColor=none;strokeColor=#006658;fontColor=#5C5C5C;" parent="cFsQP5BHmlhc9Tulh3zu-17" vertex="1">
          <mxGeometry width="30" height="40" as="geometry">
            <mxRectangle width="30" height="40" as="alternateBounds" />
          </mxGeometry>
        </mxCell>
        <mxCell id="QDBqpaRgIIuY31XScvG4-35" value="int" style="shape=partialRectangle;overflow=hidden;connectable=0;fillColor=none;top=0;left=0;bottom=0;right=0;align=left;spacingLeft=6;labelBackgroundColor=none;strokeColor=#006658;fontColor=#5C5C5C;" parent="cFsQP5BHmlhc9Tulh3zu-17" vertex="1">
          <mxGeometry x="30" width="61" height="40" as="geometry">
            <mxRectangle width="61" height="40" as="alternateBounds" />
          </mxGeometry>
        </mxCell>
        <mxCell id="cFsQP5BHmlhc9Tulh3zu-19" value="user_id" style="shape=partialRectangle;overflow=hidden;connectable=0;fillColor=none;top=0;left=0;bottom=0;right=0;align=left;spacingLeft=6;labelBackgroundColor=none;strokeColor=#006658;fontColor=#5C5C5C;" parent="cFsQP5BHmlhc9Tulh3zu-17" vertex="1">
          <mxGeometry x="91" width="160" height="40" as="geometry">
            <mxRectangle width="160" height="40" as="alternateBounds" />
          </mxGeometry>
        </mxCell>
        <mxCell id="cFsQP5BHmlhc9Tulh3zu-20" value="" style="shape=partialRectangle;collapsible=0;dropTarget=0;pointerEvents=0;fillColor=none;points=[[0,0.5],[1,0.5]];portConstraint=eastwest;top=0;left=0;right=0;bottom=0;labelBackgroundColor=none;strokeColor=#006658;fontColor=#5C5C5C;" parent="cFsQP5BHmlhc9Tulh3zu-13" vertex="1">
          <mxGeometry y="100" width="251" height="30" as="geometry" />
        </mxCell>
        <mxCell id="cFsQP5BHmlhc9Tulh3zu-21" value="FK2" style="shape=partialRectangle;overflow=hidden;connectable=0;fillColor=none;top=0;left=0;bottom=0;right=0;labelBackgroundColor=none;strokeColor=#006658;fontColor=#5C5C5C;" parent="cFsQP5BHmlhc9Tulh3zu-20" vertex="1">
          <mxGeometry width="30" height="30" as="geometry">
            <mxRectangle width="30" height="30" as="alternateBounds" />
          </mxGeometry>
        </mxCell>
        <mxCell id="QDBqpaRgIIuY31XScvG4-36" value="int" style="shape=partialRectangle;overflow=hidden;connectable=0;fillColor=none;top=0;left=0;bottom=0;right=0;align=left;spacingLeft=6;labelBackgroundColor=none;strokeColor=#006658;fontColor=#5C5C5C;" parent="cFsQP5BHmlhc9Tulh3zu-20" vertex="1">
          <mxGeometry x="30" width="61" height="30" as="geometry">
            <mxRectangle width="61" height="30" as="alternateBounds" />
          </mxGeometry>
        </mxCell>
        <mxCell id="cFsQP5BHmlhc9Tulh3zu-22" value="dish_id" style="shape=partialRectangle;overflow=hidden;connectable=0;fillColor=none;top=0;left=0;bottom=0;right=0;align=left;spacingLeft=6;labelBackgroundColor=none;strokeColor=#006658;fontColor=#5C5C5C;" parent="cFsQP5BHmlhc9Tulh3zu-20" vertex="1">
          <mxGeometry x="91" width="160" height="30" as="geometry">
            <mxRectangle width="160" height="30" as="alternateBounds" />
          </mxGeometry>
        </mxCell>
        <mxCell id="qt74afErLi43HWbwG1_q-226" value="" style="shape=partialRectangle;collapsible=0;dropTarget=0;pointerEvents=0;fillColor=none;points=[[0,0.5],[1,0.5]];portConstraint=eastwest;top=0;left=0;right=0;bottom=0;labelBackgroundColor=none;strokeColor=#006658;fontColor=#5C5C5C;" parent="cFsQP5BHmlhc9Tulh3zu-13" vertex="1">
          <mxGeometry y="130" width="251" height="30" as="geometry" />
        </mxCell>
        <mxCell id="qt74afErLi43HWbwG1_q-227" value="" style="shape=partialRectangle;overflow=hidden;connectable=0;fillColor=none;top=0;left=0;bottom=0;right=0;labelBackgroundColor=none;strokeColor=#006658;fontColor=#5C5C5C;" parent="qt74afErLi43HWbwG1_q-226" vertex="1">
          <mxGeometry width="30" height="30" as="geometry">
            <mxRectangle width="30" height="30" as="alternateBounds" />
          </mxGeometry>
        </mxCell>
        <mxCell id="qt74afErLi43HWbwG1_q-228" value="datetime" style="shape=partialRectangle;overflow=hidden;connectable=0;fillColor=none;top=0;left=0;bottom=0;right=0;align=left;spacingLeft=6;labelBackgroundColor=none;strokeColor=#006658;fontColor=#5C5C5C;" parent="qt74afErLi43HWbwG1_q-226" vertex="1">
          <mxGeometry x="30" width="61" height="30" as="geometry">
            <mxRectangle width="61" height="30" as="alternateBounds" />
          </mxGeometry>
        </mxCell>
        <mxCell id="qt74afErLi43HWbwG1_q-229" value="created_at" style="shape=partialRectangle;overflow=hidden;connectable=0;fillColor=none;top=0;left=0;bottom=0;right=0;align=left;spacingLeft=6;labelBackgroundColor=none;strokeColor=#006658;fontColor=#5C5C5C;" parent="qt74afErLi43HWbwG1_q-226" vertex="1">
          <mxGeometry x="91" width="160" height="30" as="geometry">
            <mxRectangle width="160" height="30" as="alternateBounds" />
          </mxGeometry>
        </mxCell>
        <mxCell id="338NivXYfjlc3IKWi5lk-35" value="" style="shape=partialRectangle;collapsible=0;dropTarget=0;pointerEvents=0;fillColor=none;points=[[0,0.5],[1,0.5]];portConstraint=eastwest;top=0;left=0;right=0;bottom=0;labelBackgroundColor=none;strokeColor=#006658;fontColor=#5C5C5C;" parent="cFsQP5BHmlhc9Tulh3zu-13" vertex="1">
          <mxGeometry y="160" width="251" height="30" as="geometry" />
        </mxCell>
        <mxCell id="338NivXYfjlc3IKWi5lk-36" value="" style="shape=partialRectangle;overflow=hidden;connectable=0;fillColor=none;top=0;left=0;bottom=0;right=0;labelBackgroundColor=none;strokeColor=#006658;fontColor=#5C5C5C;" parent="338NivXYfjlc3IKWi5lk-35" vertex="1">
          <mxGeometry width="30" height="30" as="geometry">
            <mxRectangle width="30" height="30" as="alternateBounds" />
          </mxGeometry>
        </mxCell>
        <mxCell id="338NivXYfjlc3IKWi5lk-37" value="datetime" style="shape=partialRectangle;overflow=hidden;connectable=0;fillColor=none;top=0;left=0;bottom=0;right=0;align=left;spacingLeft=6;labelBackgroundColor=none;strokeColor=#006658;fontColor=#5C5C5C;" parent="338NivXYfjlc3IKWi5lk-35" vertex="1">
          <mxGeometry x="30" width="61" height="30" as="geometry">
            <mxRectangle width="61" height="30" as="alternateBounds" />
          </mxGeometry>
        </mxCell>
        <mxCell id="338NivXYfjlc3IKWi5lk-38" value="updated_at" style="shape=partialRectangle;overflow=hidden;connectable=0;fillColor=none;top=0;left=0;bottom=0;right=0;align=left;spacingLeft=6;labelBackgroundColor=none;strokeColor=#006658;fontColor=#5C5C5C;" parent="338NivXYfjlc3IKWi5lk-35" vertex="1">
          <mxGeometry x="91" width="160" height="30" as="geometry">
            <mxRectangle width="160" height="30" as="alternateBounds" />
          </mxGeometry>
        </mxCell>
        <mxCell id="QDBqpaRgIIuY31XScvG4-37" value="Category_contents" style="shape=table;startSize=30;container=1;collapsible=1;childLayout=tableLayout;fixedRows=1;rowLines=0;fontStyle=1;align=center;resizeLast=1;labelBackgroundColor=none;fillColor=#21C0A5;strokeColor=#006658;fontColor=#5C5C5C;" parent="1" vertex="1">
          <mxGeometry x="430" y="220" width="251" height="220" as="geometry" />
        </mxCell>
        <mxCell id="QDBqpaRgIIuY31XScvG4-38" value="" style="shape=partialRectangle;collapsible=0;dropTarget=0;pointerEvents=0;fillColor=none;points=[[0,0.5],[1,0.5]];portConstraint=eastwest;top=0;left=0;right=0;bottom=1;labelBackgroundColor=none;strokeColor=#006658;fontColor=#5C5C5C;" parent="QDBqpaRgIIuY31XScvG4-37" vertex="1">
          <mxGeometry y="30" width="251" height="30" as="geometry" />
        </mxCell>
        <mxCell id="QDBqpaRgIIuY31XScvG4-39" value="PK" style="shape=partialRectangle;overflow=hidden;connectable=0;fillColor=none;top=0;left=0;bottom=0;right=0;fontStyle=1;labelBackgroundColor=none;strokeColor=#006658;fontColor=#5C5C5C;" parent="QDBqpaRgIIuY31XScvG4-38" vertex="1">
          <mxGeometry width="30" height="30" as="geometry">
            <mxRectangle width="30" height="30" as="alternateBounds" />
          </mxGeometry>
        </mxCell>
        <mxCell id="QDBqpaRgIIuY31XScvG4-40" value="int" style="shape=partialRectangle;overflow=hidden;connectable=0;fillColor=none;top=0;left=0;bottom=0;right=0;align=left;spacingLeft=6;fontStyle=5;labelBackgroundColor=none;strokeColor=#006658;fontColor=#5C5C5C;" parent="QDBqpaRgIIuY31XScvG4-38" vertex="1">
          <mxGeometry x="30" width="61" height="30" as="geometry">
            <mxRectangle width="61" height="30" as="alternateBounds" />
          </mxGeometry>
        </mxCell>
        <mxCell id="QDBqpaRgIIuY31XScvG4-41" value="id" style="shape=partialRectangle;overflow=hidden;connectable=0;fillColor=none;top=0;left=0;bottom=0;right=0;align=left;spacingLeft=6;fontStyle=5;labelBackgroundColor=none;strokeColor=#006658;fontColor=#5C5C5C;" parent="QDBqpaRgIIuY31XScvG4-38" vertex="1">
          <mxGeometry x="91" width="160" height="30" as="geometry">
            <mxRectangle width="160" height="30" as="alternateBounds" />
          </mxGeometry>
        </mxCell>
        <mxCell id="QDBqpaRgIIuY31XScvG4-42" value="" style="shape=partialRectangle;collapsible=0;dropTarget=0;pointerEvents=0;fillColor=none;points=[[0,0.5],[1,0.5]];portConstraint=eastwest;top=0;left=0;right=0;bottom=0;labelBackgroundColor=none;strokeColor=#006658;fontColor=#5C5C5C;" parent="QDBqpaRgIIuY31XScvG4-37" vertex="1">
          <mxGeometry y="60" width="251" height="30" as="geometry" />
        </mxCell>
        <mxCell id="QDBqpaRgIIuY31XScvG4-43" value="FK1" style="shape=partialRectangle;overflow=hidden;connectable=0;fillColor=none;top=0;left=0;bottom=0;right=0;labelBackgroundColor=none;strokeColor=#006658;fontColor=#5C5C5C;" parent="QDBqpaRgIIuY31XScvG4-42" vertex="1">
          <mxGeometry width="30" height="30" as="geometry">
            <mxRectangle width="30" height="30" as="alternateBounds" />
          </mxGeometry>
        </mxCell>
        <mxCell id="QDBqpaRgIIuY31XScvG4-44" value="int" style="shape=partialRectangle;overflow=hidden;connectable=0;fillColor=none;top=0;left=0;bottom=0;right=0;align=left;spacingLeft=6;labelBackgroundColor=none;strokeColor=#006658;fontColor=#5C5C5C;" parent="QDBqpaRgIIuY31XScvG4-42" vertex="1">
          <mxGeometry x="30" width="61" height="30" as="geometry">
            <mxRectangle width="61" height="30" as="alternateBounds" />
          </mxGeometry>
        </mxCell>
        <mxCell id="QDBqpaRgIIuY31XScvG4-45" value="dish_id" style="shape=partialRectangle;overflow=hidden;connectable=0;fillColor=none;top=0;left=0;bottom=0;right=0;align=left;spacingLeft=6;labelBackgroundColor=none;strokeColor=#006658;fontColor=#5C5C5C;" parent="QDBqpaRgIIuY31XScvG4-42" vertex="1">
          <mxGeometry x="91" width="160" height="30" as="geometry">
            <mxRectangle width="160" height="30" as="alternateBounds" />
          </mxGeometry>
        </mxCell>
        <mxCell id="qt74afErLi43HWbwG1_q-70" value="" style="shape=partialRectangle;collapsible=0;dropTarget=0;pointerEvents=0;fillColor=none;points=[[0,0.5],[1,0.5]];portConstraint=eastwest;top=0;left=0;right=0;bottom=0;labelBackgroundColor=none;strokeColor=#006658;fontColor=#5C5C5C;" parent="QDBqpaRgIIuY31XScvG4-37" vertex="1">
          <mxGeometry y="90" width="251" height="30" as="geometry" />
        </mxCell>
        <mxCell id="qt74afErLi43HWbwG1_q-71" value="FK2" style="shape=partialRectangle;overflow=hidden;connectable=0;fillColor=none;top=0;left=0;bottom=0;right=0;labelBackgroundColor=none;strokeColor=#006658;fontColor=#5C5C5C;" parent="qt74afErLi43HWbwG1_q-70" vertex="1">
          <mxGeometry width="30" height="30" as="geometry">
            <mxRectangle width="30" height="30" as="alternateBounds" />
          </mxGeometry>
        </mxCell>
        <mxCell id="qt74afErLi43HWbwG1_q-72" value="int" style="shape=partialRectangle;overflow=hidden;connectable=0;fillColor=none;top=0;left=0;bottom=0;right=0;align=left;spacingLeft=6;labelBackgroundColor=none;strokeColor=#006658;fontColor=#5C5C5C;" parent="qt74afErLi43HWbwG1_q-70" vertex="1">
          <mxGeometry x="30" width="61" height="30" as="geometry">
            <mxRectangle width="61" height="30" as="alternateBounds" />
          </mxGeometry>
        </mxCell>
        <mxCell id="qt74afErLi43HWbwG1_q-73" value="catgory_id" style="shape=partialRectangle;overflow=hidden;connectable=0;fillColor=none;top=0;left=0;bottom=0;right=0;align=left;spacingLeft=6;labelBackgroundColor=none;strokeColor=#006658;fontColor=#5C5C5C;" parent="qt74afErLi43HWbwG1_q-70" vertex="1">
          <mxGeometry x="91" width="160" height="30" as="geometry">
            <mxRectangle width="160" height="30" as="alternateBounds" />
          </mxGeometry>
        </mxCell>
        <mxCell id="qt74afErLi43HWbwG1_q-78" value="" style="shape=partialRectangle;collapsible=0;dropTarget=0;pointerEvents=0;fillColor=none;points=[[0,0.5],[1,0.5]];portConstraint=eastwest;top=0;left=0;right=0;bottom=0;labelBackgroundColor=none;strokeColor=#006658;fontColor=#5C5C5C;" parent="QDBqpaRgIIuY31XScvG4-37" vertex="1">
          <mxGeometry y="120" width="251" height="30" as="geometry" />
        </mxCell>
        <mxCell id="qt74afErLi43HWbwG1_q-79" value="" style="shape=partialRectangle;overflow=hidden;connectable=0;fillColor=none;top=0;left=0;bottom=0;right=0;labelBackgroundColor=none;strokeColor=#006658;fontColor=#5C5C5C;" parent="qt74afErLi43HWbwG1_q-78" vertex="1">
          <mxGeometry width="30" height="30" as="geometry">
            <mxRectangle width="30" height="30" as="alternateBounds" />
          </mxGeometry>
        </mxCell>
        <mxCell id="qt74afErLi43HWbwG1_q-80" value="string" style="shape=partialRectangle;overflow=hidden;connectable=0;fillColor=none;top=0;left=0;bottom=0;right=0;align=left;spacingLeft=6;labelBackgroundColor=none;strokeColor=#006658;fontColor=#5C5C5C;" parent="qt74afErLi43HWbwG1_q-78" vertex="1">
          <mxGeometry x="30" width="61" height="30" as="geometry">
            <mxRectangle width="61" height="30" as="alternateBounds" />
          </mxGeometry>
        </mxCell>
        <mxCell id="qt74afErLi43HWbwG1_q-81" value="label" style="shape=partialRectangle;overflow=hidden;connectable=0;fillColor=none;top=0;left=0;bottom=0;right=0;align=left;spacingLeft=6;labelBackgroundColor=none;strokeColor=#006658;fontColor=#5C5C5C;" parent="qt74afErLi43HWbwG1_q-78" vertex="1">
          <mxGeometry x="91" width="160" height="30" as="geometry">
            <mxRectangle width="160" height="30" as="alternateBounds" />
          </mxGeometry>
        </mxCell>
        <mxCell id="qt74afErLi43HWbwG1_q-218" value="" style="shape=partialRectangle;collapsible=0;dropTarget=0;pointerEvents=0;fillColor=none;points=[[0,0.5],[1,0.5]];portConstraint=eastwest;top=0;left=0;right=0;bottom=0;labelBackgroundColor=none;strokeColor=#006658;fontColor=#5C5C5C;" parent="QDBqpaRgIIuY31XScvG4-37" vertex="1">
          <mxGeometry y="150" width="251" height="30" as="geometry" />
        </mxCell>
        <mxCell id="qt74afErLi43HWbwG1_q-219" value="" style="shape=partialRectangle;overflow=hidden;connectable=0;fillColor=none;top=0;left=0;bottom=0;right=0;labelBackgroundColor=none;strokeColor=#006658;fontColor=#5C5C5C;" parent="qt74afErLi43HWbwG1_q-218" vertex="1">
          <mxGeometry width="30" height="30" as="geometry">
            <mxRectangle width="30" height="30" as="alternateBounds" />
          </mxGeometry>
        </mxCell>
        <mxCell id="qt74afErLi43HWbwG1_q-220" value="datetime" style="shape=partialRectangle;overflow=hidden;connectable=0;fillColor=none;top=0;left=0;bottom=0;right=0;align=left;spacingLeft=6;labelBackgroundColor=none;strokeColor=#006658;fontColor=#5C5C5C;" parent="qt74afErLi43HWbwG1_q-218" vertex="1">
          <mxGeometry x="30" width="61" height="30" as="geometry">
            <mxRectangle width="61" height="30" as="alternateBounds" />
          </mxGeometry>
        </mxCell>
        <mxCell id="qt74afErLi43HWbwG1_q-221" value="created_at" style="shape=partialRectangle;overflow=hidden;connectable=0;fillColor=none;top=0;left=0;bottom=0;right=0;align=left;spacingLeft=6;labelBackgroundColor=none;strokeColor=#006658;fontColor=#5C5C5C;" parent="qt74afErLi43HWbwG1_q-218" vertex="1">
          <mxGeometry x="91" width="160" height="30" as="geometry">
            <mxRectangle width="160" height="30" as="alternateBounds" />
          </mxGeometry>
        </mxCell>
        <mxCell id="338NivXYfjlc3IKWi5lk-31" value="" style="shape=partialRectangle;collapsible=0;dropTarget=0;pointerEvents=0;fillColor=none;points=[[0,0.5],[1,0.5]];portConstraint=eastwest;top=0;left=0;right=0;bottom=0;labelBackgroundColor=none;strokeColor=#006658;fontColor=#5C5C5C;" parent="QDBqpaRgIIuY31XScvG4-37" vertex="1">
          <mxGeometry y="180" width="251" height="30" as="geometry" />
        </mxCell>
        <mxCell id="338NivXYfjlc3IKWi5lk-32" value="" style="shape=partialRectangle;overflow=hidden;connectable=0;fillColor=none;top=0;left=0;bottom=0;right=0;labelBackgroundColor=none;strokeColor=#006658;fontColor=#5C5C5C;" parent="338NivXYfjlc3IKWi5lk-31" vertex="1">
          <mxGeometry width="30" height="30" as="geometry">
            <mxRectangle width="30" height="30" as="alternateBounds" />
          </mxGeometry>
        </mxCell>
        <mxCell id="338NivXYfjlc3IKWi5lk-33" value="datetime" style="shape=partialRectangle;overflow=hidden;connectable=0;fillColor=none;top=0;left=0;bottom=0;right=0;align=left;spacingLeft=6;labelBackgroundColor=none;strokeColor=#006658;fontColor=#5C5C5C;" parent="338NivXYfjlc3IKWi5lk-31" vertex="1">
          <mxGeometry x="30" width="61" height="30" as="geometry">
            <mxRectangle width="61" height="30" as="alternateBounds" />
          </mxGeometry>
        </mxCell>
        <mxCell id="338NivXYfjlc3IKWi5lk-34" value="updated_at" style="shape=partialRectangle;overflow=hidden;connectable=0;fillColor=none;top=0;left=0;bottom=0;right=0;align=left;spacingLeft=6;labelBackgroundColor=none;strokeColor=#006658;fontColor=#5C5C5C;" parent="338NivXYfjlc3IKWi5lk-31" vertex="1">
          <mxGeometry x="91" width="160" height="30" as="geometry">
            <mxRectangle width="160" height="30" as="alternateBounds" />
          </mxGeometry>
        </mxCell>
        <mxCell id="qt74afErLi43HWbwG1_q-88" value="Admin_users" style="shape=table;startSize=30;container=1;collapsible=1;childLayout=tableLayout;fixedRows=1;rowLines=0;fontStyle=1;align=center;resizeLast=1;labelBackgroundColor=none;fillColor=#21C0A5;strokeColor=#006658;fontColor=#5C5C5C;" parent="1" vertex="1">
          <mxGeometry x="109" y="200" width="201" height="210" as="geometry" />
        </mxCell>
        <mxCell id="qt74afErLi43HWbwG1_q-89" value="" style="shape=partialRectangle;collapsible=0;dropTarget=0;pointerEvents=0;fillColor=none;points=[[0,0.5],[1,0.5]];portConstraint=eastwest;top=0;left=0;right=0;bottom=1;labelBackgroundColor=none;strokeColor=#006658;fontColor=#5C5C5C;" parent="qt74afErLi43HWbwG1_q-88" vertex="1">
          <mxGeometry y="30" width="201" height="30" as="geometry" />
        </mxCell>
        <mxCell id="qt74afErLi43HWbwG1_q-90" value="PK" style="shape=partialRectangle;overflow=hidden;connectable=0;fillColor=none;top=0;left=0;bottom=0;right=0;fontStyle=1;labelBackgroundColor=none;strokeColor=#006658;fontColor=#5C5C5C;" parent="qt74afErLi43HWbwG1_q-89" vertex="1">
          <mxGeometry width="30" height="30" as="geometry">
            <mxRectangle width="30" height="30" as="alternateBounds" />
          </mxGeometry>
        </mxCell>
        <mxCell id="qt74afErLi43HWbwG1_q-91" value="int" style="shape=partialRectangle;overflow=hidden;connectable=0;fillColor=none;top=0;left=0;bottom=0;right=0;fontStyle=1;labelBackgroundColor=none;strokeColor=#006658;fontColor=#5C5C5C;" parent="qt74afErLi43HWbwG1_q-89" vertex="1">
          <mxGeometry x="30" width="51" height="30" as="geometry">
            <mxRectangle width="51" height="30" as="alternateBounds" />
          </mxGeometry>
        </mxCell>
        <mxCell id="qt74afErLi43HWbwG1_q-92" value="id" style="shape=partialRectangle;overflow=hidden;connectable=0;fillColor=none;top=0;left=0;bottom=0;right=0;align=left;spacingLeft=6;fontStyle=5;labelBackgroundColor=none;strokeColor=#006658;fontColor=#5C5C5C;" parent="qt74afErLi43HWbwG1_q-89" vertex="1">
          <mxGeometry x="81" width="120" height="30" as="geometry">
            <mxRectangle width="120" height="30" as="alternateBounds" />
          </mxGeometry>
        </mxCell>
        <mxCell id="qt74afErLi43HWbwG1_q-93" value="" style="shape=partialRectangle;collapsible=0;dropTarget=0;pointerEvents=0;fillColor=none;points=[[0,0.5],[1,0.5]];portConstraint=eastwest;top=0;left=0;right=0;bottom=0;labelBackgroundColor=none;strokeColor=#006658;fontColor=#5C5C5C;" parent="qt74afErLi43HWbwG1_q-88" vertex="1">
          <mxGeometry y="60" width="201" height="30" as="geometry" />
        </mxCell>
        <mxCell id="qt74afErLi43HWbwG1_q-94" style="shape=partialRectangle;overflow=hidden;connectable=0;fillColor=none;top=0;left=0;bottom=0;right=0;labelBackgroundColor=none;strokeColor=#006658;fontColor=#5C5C5C;" parent="qt74afErLi43HWbwG1_q-93" vertex="1">
          <mxGeometry width="30" height="30" as="geometry">
            <mxRectangle width="30" height="30" as="alternateBounds" />
          </mxGeometry>
        </mxCell>
        <mxCell id="qt74afErLi43HWbwG1_q-95" value="string" style="shape=partialRectangle;overflow=hidden;connectable=0;fillColor=none;top=0;left=0;bottom=0;right=0;labelBackgroundColor=none;strokeColor=#006658;fontColor=#5C5C5C;" parent="qt74afErLi43HWbwG1_q-93" vertex="1">
          <mxGeometry x="30" width="51" height="30" as="geometry">
            <mxRectangle width="51" height="30" as="alternateBounds" />
          </mxGeometry>
        </mxCell>
        <mxCell id="qt74afErLi43HWbwG1_q-96" value="name" style="shape=partialRectangle;overflow=hidden;connectable=0;fillColor=none;top=0;left=0;bottom=0;right=0;align=left;spacingLeft=6;labelBackgroundColor=none;strokeColor=#006658;fontColor=#5C5C5C;" parent="qt74afErLi43HWbwG1_q-93" vertex="1">
          <mxGeometry x="81" width="120" height="30" as="geometry">
            <mxRectangle width="120" height="30" as="alternateBounds" />
          </mxGeometry>
        </mxCell>
        <mxCell id="qt74afErLi43HWbwG1_q-97" value="" style="shape=partialRectangle;collapsible=0;dropTarget=0;pointerEvents=0;fillColor=none;points=[[0,0.5],[1,0.5]];portConstraint=eastwest;top=0;left=0;right=0;bottom=0;labelBackgroundColor=none;strokeColor=#006658;fontColor=#5C5C5C;" parent="qt74afErLi43HWbwG1_q-88" vertex="1">
          <mxGeometry y="90" width="201" height="30" as="geometry" />
        </mxCell>
        <mxCell id="qt74afErLi43HWbwG1_q-98" style="shape=partialRectangle;overflow=hidden;connectable=0;fillColor=none;top=0;left=0;bottom=0;right=0;labelBackgroundColor=none;strokeColor=#006658;fontColor=#5C5C5C;" parent="qt74afErLi43HWbwG1_q-97" vertex="1">
          <mxGeometry width="30" height="30" as="geometry">
            <mxRectangle width="30" height="30" as="alternateBounds" />
          </mxGeometry>
        </mxCell>
        <mxCell id="qt74afErLi43HWbwG1_q-99" value="string" style="shape=partialRectangle;overflow=hidden;connectable=0;fillColor=none;top=0;left=0;bottom=0;right=0;labelBackgroundColor=none;strokeColor=#006658;fontColor=#5C5C5C;" parent="qt74afErLi43HWbwG1_q-97" vertex="1">
          <mxGeometry x="30" width="51" height="30" as="geometry">
            <mxRectangle width="51" height="30" as="alternateBounds" />
          </mxGeometry>
        </mxCell>
        <mxCell id="qt74afErLi43HWbwG1_q-100" value="email" style="shape=partialRectangle;overflow=hidden;connectable=0;fillColor=none;top=0;left=0;bottom=0;right=0;align=left;spacingLeft=6;labelBackgroundColor=none;strokeColor=#006658;fontColor=#5C5C5C;" parent="qt74afErLi43HWbwG1_q-97" vertex="1">
          <mxGeometry x="81" width="120" height="30" as="geometry">
            <mxRectangle width="120" height="30" as="alternateBounds" />
          </mxGeometry>
        </mxCell>
        <mxCell id="qt74afErLi43HWbwG1_q-101" value="" style="shape=partialRectangle;collapsible=0;dropTarget=0;pointerEvents=0;fillColor=none;points=[[0,0.5],[1,0.5]];portConstraint=eastwest;top=0;left=0;right=0;bottom=0;labelBackgroundColor=none;strokeColor=#006658;fontColor=#5C5C5C;" parent="qt74afErLi43HWbwG1_q-88" vertex="1">
          <mxGeometry y="120" width="201" height="30" as="geometry" />
        </mxCell>
        <mxCell id="qt74afErLi43HWbwG1_q-102" style="shape=partialRectangle;overflow=hidden;connectable=0;fillColor=none;top=0;left=0;bottom=0;right=0;labelBackgroundColor=none;strokeColor=#006658;fontColor=#5C5C5C;" parent="qt74afErLi43HWbwG1_q-101" vertex="1">
          <mxGeometry width="30" height="30" as="geometry">
            <mxRectangle width="30" height="30" as="alternateBounds" />
          </mxGeometry>
        </mxCell>
        <mxCell id="qt74afErLi43HWbwG1_q-103" value="sting" style="shape=partialRectangle;overflow=hidden;connectable=0;fillColor=none;top=0;left=0;bottom=0;right=0;labelBackgroundColor=none;strokeColor=#006658;fontColor=#5C5C5C;" parent="qt74afErLi43HWbwG1_q-101" vertex="1">
          <mxGeometry x="30" width="51" height="30" as="geometry">
            <mxRectangle width="51" height="30" as="alternateBounds" />
          </mxGeometry>
        </mxCell>
        <mxCell id="qt74afErLi43HWbwG1_q-104" value="encrypted_password" style="shape=partialRectangle;overflow=hidden;connectable=0;fillColor=none;top=0;left=0;bottom=0;right=0;align=left;spacingLeft=6;labelBackgroundColor=none;strokeColor=#006658;fontColor=#5C5C5C;" parent="qt74afErLi43HWbwG1_q-101" vertex="1">
          <mxGeometry x="81" width="120" height="30" as="geometry">
            <mxRectangle width="120" height="30" as="alternateBounds" />
          </mxGeometry>
        </mxCell>
        <mxCell id="qt74afErLi43HWbwG1_q-143" value="" style="shape=partialRectangle;collapsible=0;dropTarget=0;pointerEvents=0;fillColor=none;points=[[0,0.5],[1,0.5]];portConstraint=eastwest;top=0;left=0;right=0;bottom=0;labelBackgroundColor=none;strokeColor=#006658;fontColor=#5C5C5C;" parent="qt74afErLi43HWbwG1_q-88" vertex="1">
          <mxGeometry y="150" width="201" height="30" as="geometry" />
        </mxCell>
        <mxCell id="qt74afErLi43HWbwG1_q-144" style="shape=partialRectangle;overflow=hidden;connectable=0;fillColor=none;top=0;left=0;bottom=0;right=0;labelBackgroundColor=none;strokeColor=#006658;fontColor=#5C5C5C;" parent="qt74afErLi43HWbwG1_q-143" vertex="1">
          <mxGeometry width="30" height="30" as="geometry">
            <mxRectangle width="30" height="30" as="alternateBounds" />
          </mxGeometry>
        </mxCell>
        <mxCell id="qt74afErLi43HWbwG1_q-145" value="datetime" style="shape=partialRectangle;overflow=hidden;connectable=0;fillColor=none;top=0;left=0;bottom=0;right=0;labelBackgroundColor=none;strokeColor=#006658;fontColor=#5C5C5C;" parent="qt74afErLi43HWbwG1_q-143" vertex="1">
          <mxGeometry x="30" width="51" height="30" as="geometry">
            <mxRectangle width="51" height="30" as="alternateBounds" />
          </mxGeometry>
        </mxCell>
        <mxCell id="qt74afErLi43HWbwG1_q-146" value="created_at" style="shape=partialRectangle;overflow=hidden;connectable=0;fillColor=none;top=0;left=0;bottom=0;right=0;align=left;spacingLeft=6;labelBackgroundColor=none;strokeColor=#006658;fontColor=#5C5C5C;" parent="qt74afErLi43HWbwG1_q-143" vertex="1">
          <mxGeometry x="81" width="120" height="30" as="geometry">
            <mxRectangle width="120" height="30" as="alternateBounds" />
          </mxGeometry>
        </mxCell>
        <mxCell id="338NivXYfjlc3IKWi5lk-19" value="" style="shape=partialRectangle;collapsible=0;dropTarget=0;pointerEvents=0;fillColor=none;points=[[0,0.5],[1,0.5]];portConstraint=eastwest;top=0;left=0;right=0;bottom=0;labelBackgroundColor=none;strokeColor=#006658;fontColor=#5C5C5C;" parent="qt74afErLi43HWbwG1_q-88" vertex="1">
          <mxGeometry y="180" width="201" height="30" as="geometry" />
        </mxCell>
        <mxCell id="338NivXYfjlc3IKWi5lk-20" style="shape=partialRectangle;overflow=hidden;connectable=0;fillColor=none;top=0;left=0;bottom=0;right=0;labelBackgroundColor=none;strokeColor=#006658;fontColor=#5C5C5C;" parent="338NivXYfjlc3IKWi5lk-19" vertex="1">
          <mxGeometry width="30" height="30" as="geometry">
            <mxRectangle width="30" height="30" as="alternateBounds" />
          </mxGeometry>
        </mxCell>
        <mxCell id="338NivXYfjlc3IKWi5lk-21" value="datetime" style="shape=partialRectangle;overflow=hidden;connectable=0;fillColor=none;top=0;left=0;bottom=0;right=0;labelBackgroundColor=none;strokeColor=#006658;fontColor=#5C5C5C;" parent="338NivXYfjlc3IKWi5lk-19" vertex="1">
          <mxGeometry x="30" width="51" height="30" as="geometry">
            <mxRectangle width="51" height="30" as="alternateBounds" />
          </mxGeometry>
        </mxCell>
        <mxCell id="338NivXYfjlc3IKWi5lk-22" value="updated_at" style="shape=partialRectangle;overflow=hidden;connectable=0;fillColor=none;top=0;left=0;bottom=0;right=0;align=left;spacingLeft=6;labelBackgroundColor=none;strokeColor=#006658;fontColor=#5C5C5C;" parent="338NivXYfjlc3IKWi5lk-19" vertex="1">
          <mxGeometry x="81" width="120" height="30" as="geometry">
            <mxRectangle width="120" height="30" as="alternateBounds" />
          </mxGeometry>
        </mxCell>
        <mxCell id="qt74afErLi43HWbwG1_q-113" value="Categories" style="shape=table;startSize=30;container=1;collapsible=1;childLayout=tableLayout;fixedRows=1;rowLines=0;fontStyle=1;align=center;resizeLast=1;labelBackgroundColor=none;fillColor=#21C0A5;strokeColor=#006658;fontColor=#5C5C5C;" parent="1" vertex="1">
          <mxGeometry x="950" y="312.81" width="251" height="160" as="geometry" />
        </mxCell>
        <mxCell id="qt74afErLi43HWbwG1_q-114" value="" style="shape=partialRectangle;collapsible=0;dropTarget=0;pointerEvents=0;fillColor=none;points=[[0,0.5],[1,0.5]];portConstraint=eastwest;top=0;left=0;right=0;bottom=1;labelBackgroundColor=none;strokeColor=#006658;fontColor=#5C5C5C;" parent="qt74afErLi43HWbwG1_q-113" vertex="1">
          <mxGeometry y="30" width="251" height="30" as="geometry" />
        </mxCell>
        <mxCell id="qt74afErLi43HWbwG1_q-115" value="PK" style="shape=partialRectangle;overflow=hidden;connectable=0;fillColor=none;top=0;left=0;bottom=0;right=0;fontStyle=1;labelBackgroundColor=none;strokeColor=#006658;fontColor=#5C5C5C;" parent="qt74afErLi43HWbwG1_q-114" vertex="1">
          <mxGeometry width="30" height="30" as="geometry">
            <mxRectangle width="30" height="30" as="alternateBounds" />
          </mxGeometry>
        </mxCell>
        <mxCell id="qt74afErLi43HWbwG1_q-116" value="int" style="shape=partialRectangle;overflow=hidden;connectable=0;fillColor=none;top=0;left=0;bottom=0;right=0;align=left;spacingLeft=6;fontStyle=5;labelBackgroundColor=none;strokeColor=#006658;fontColor=#5C5C5C;" parent="qt74afErLi43HWbwG1_q-114" vertex="1">
          <mxGeometry x="30" width="61" height="30" as="geometry">
            <mxRectangle width="61" height="30" as="alternateBounds" />
          </mxGeometry>
        </mxCell>
        <mxCell id="qt74afErLi43HWbwG1_q-117" value="id" style="shape=partialRectangle;overflow=hidden;connectable=0;fillColor=none;top=0;left=0;bottom=0;right=0;align=left;spacingLeft=6;fontStyle=5;labelBackgroundColor=none;strokeColor=#006658;fontColor=#5C5C5C;" parent="qt74afErLi43HWbwG1_q-114" vertex="1">
          <mxGeometry x="91" width="160" height="30" as="geometry">
            <mxRectangle width="160" height="30" as="alternateBounds" />
          </mxGeometry>
        </mxCell>
        <mxCell id="qt74afErLi43HWbwG1_q-122" value="" style="shape=partialRectangle;collapsible=0;dropTarget=0;pointerEvents=0;fillColor=none;points=[[0,0.5],[1,0.5]];portConstraint=eastwest;top=0;left=0;right=0;bottom=0;labelBackgroundColor=none;strokeColor=#006658;fontColor=#5C5C5C;" parent="qt74afErLi43HWbwG1_q-113" vertex="1">
          <mxGeometry y="60" width="251" height="30" as="geometry" />
        </mxCell>
        <mxCell id="qt74afErLi43HWbwG1_q-123" value="" style="shape=partialRectangle;overflow=hidden;connectable=0;fillColor=none;top=0;left=0;bottom=0;right=0;labelBackgroundColor=none;strokeColor=#006658;fontColor=#5C5C5C;" parent="qt74afErLi43HWbwG1_q-122" vertex="1">
          <mxGeometry width="30" height="30" as="geometry">
            <mxRectangle width="30" height="30" as="alternateBounds" />
          </mxGeometry>
        </mxCell>
        <mxCell id="qt74afErLi43HWbwG1_q-124" value="string" style="shape=partialRectangle;overflow=hidden;connectable=0;fillColor=none;top=0;left=0;bottom=0;right=0;align=left;spacingLeft=6;labelBackgroundColor=none;strokeColor=#006658;fontColor=#5C5C5C;" parent="qt74afErLi43HWbwG1_q-122" vertex="1">
          <mxGeometry x="30" width="61" height="30" as="geometry">
            <mxRectangle width="61" height="30" as="alternateBounds" />
          </mxGeometry>
        </mxCell>
        <mxCell id="qt74afErLi43HWbwG1_q-125" value="name" style="shape=partialRectangle;overflow=hidden;connectable=0;fillColor=none;top=0;left=0;bottom=0;right=0;align=left;spacingLeft=6;labelBackgroundColor=none;strokeColor=#006658;fontColor=#5C5C5C;" parent="qt74afErLi43HWbwG1_q-122" vertex="1">
          <mxGeometry x="91" width="160" height="30" as="geometry">
            <mxRectangle width="160" height="30" as="alternateBounds" />
          </mxGeometry>
        </mxCell>
        <mxCell id="qt74afErLi43HWbwG1_q-130" value="" style="shape=partialRectangle;collapsible=0;dropTarget=0;pointerEvents=0;fillColor=none;points=[[0,0.5],[1,0.5]];portConstraint=eastwest;top=0;left=0;right=0;bottom=0;labelBackgroundColor=none;strokeColor=#006658;fontColor=#5C5C5C;" parent="qt74afErLi43HWbwG1_q-113" vertex="1">
          <mxGeometry y="90" width="251" height="30" as="geometry" />
        </mxCell>
        <mxCell id="qt74afErLi43HWbwG1_q-131" value="" style="shape=partialRectangle;overflow=hidden;connectable=0;fillColor=none;top=0;left=0;bottom=0;right=0;labelBackgroundColor=none;strokeColor=#006658;fontColor=#5C5C5C;" parent="qt74afErLi43HWbwG1_q-130" vertex="1">
          <mxGeometry width="30" height="30" as="geometry">
            <mxRectangle width="30" height="30" as="alternateBounds" />
          </mxGeometry>
        </mxCell>
        <mxCell id="qt74afErLi43HWbwG1_q-132" value="datetime" style="shape=partialRectangle;overflow=hidden;connectable=0;fillColor=none;top=0;left=0;bottom=0;right=0;align=left;spacingLeft=6;labelBackgroundColor=none;strokeColor=#006658;fontColor=#5C5C5C;" parent="qt74afErLi43HWbwG1_q-130" vertex="1">
          <mxGeometry x="30" width="61" height="30" as="geometry">
            <mxRectangle width="61" height="30" as="alternateBounds" />
          </mxGeometry>
        </mxCell>
        <mxCell id="qt74afErLi43HWbwG1_q-133" value="created_at" style="shape=partialRectangle;overflow=hidden;connectable=0;fillColor=none;top=0;left=0;bottom=0;right=0;align=left;spacingLeft=6;labelBackgroundColor=none;strokeColor=#006658;fontColor=#5C5C5C;" parent="qt74afErLi43HWbwG1_q-130" vertex="1">
          <mxGeometry x="91" width="160" height="30" as="geometry">
            <mxRectangle width="160" height="30" as="alternateBounds" />
          </mxGeometry>
        </mxCell>
        <mxCell id="338NivXYfjlc3IKWi5lk-39" value="" style="shape=partialRectangle;collapsible=0;dropTarget=0;pointerEvents=0;fillColor=none;points=[[0,0.5],[1,0.5]];portConstraint=eastwest;top=0;left=0;right=0;bottom=0;labelBackgroundColor=none;strokeColor=#006658;fontColor=#5C5C5C;" parent="qt74afErLi43HWbwG1_q-113" vertex="1">
          <mxGeometry y="120" width="251" height="30" as="geometry" />
        </mxCell>
        <mxCell id="338NivXYfjlc3IKWi5lk-40" value="" style="shape=partialRectangle;overflow=hidden;connectable=0;fillColor=none;top=0;left=0;bottom=0;right=0;labelBackgroundColor=none;strokeColor=#006658;fontColor=#5C5C5C;" parent="338NivXYfjlc3IKWi5lk-39" vertex="1">
          <mxGeometry width="30" height="30" as="geometry">
            <mxRectangle width="30" height="30" as="alternateBounds" />
          </mxGeometry>
        </mxCell>
        <mxCell id="338NivXYfjlc3IKWi5lk-41" value="datetime" style="shape=partialRectangle;overflow=hidden;connectable=0;fillColor=none;top=0;left=0;bottom=0;right=0;align=left;spacingLeft=6;labelBackgroundColor=none;strokeColor=#006658;fontColor=#5C5C5C;" parent="338NivXYfjlc3IKWi5lk-39" vertex="1">
          <mxGeometry x="30" width="61" height="30" as="geometry">
            <mxRectangle width="61" height="30" as="alternateBounds" />
          </mxGeometry>
        </mxCell>
        <mxCell id="338NivXYfjlc3IKWi5lk-42" value="updated_at" style="shape=partialRectangle;overflow=hidden;connectable=0;fillColor=none;top=0;left=0;bottom=0;right=0;align=left;spacingLeft=6;labelBackgroundColor=none;strokeColor=#006658;fontColor=#5C5C5C;" parent="338NivXYfjlc3IKWi5lk-39" vertex="1">
          <mxGeometry x="91" width="160" height="30" as="geometry">
            <mxRectangle width="160" height="30" as="alternateBounds" />
          </mxGeometry>
        </mxCell>
        <mxCell id="qt74afErLi43HWbwG1_q-224" value="" style="edgeStyle=entityRelationEdgeStyle;fontSize=12;html=1;endArrow=ERzeroToMany;startArrow=ERmandOne;rounded=0;strokeColor=#006658;fontColor=#5C5C5C;startSize=8;endSize=8;fillColor=#21C0A5;entryX=0;entryY=0.5;entryDx=0;entryDy=0;" parent="1" target="cFsQP5BHmlhc9Tulh3zu-4" edge="1">
          <mxGeometry width="100" height="100" relative="1" as="geometry">
            <mxPoint x="310" y="300" as="sourcePoint" />
            <mxPoint x="410" y="200.00000000000003" as="targetPoint" />
          </mxGeometry>
        </mxCell>
        <mxCell id="w8F_jeQvWusTI5VODy6q-2" value="" style="edgeStyle=entityRelationEdgeStyle;fontSize=12;html=1;endArrow=ERzeroToMany;startArrow=ERmandOne;rounded=0;strokeColor=#006658;fontColor=#5C5C5C;startSize=8;endSize=8;fillColor=#21C0A5;entryX=1;entryY=0.5;entryDx=0;entryDy=0;exitX=1;exitY=0.5;exitDx=0;exitDy=0;" parent="1" target="qt74afErLi43HWbwG1_q-218" edge="1">
          <mxGeometry width="100" height="100" relative="1" as="geometry">
            <mxPoint x="681" y="625" as="sourcePoint" />
            <mxPoint x="817" y="1025" as="targetPoint" />
            <Array as="points">
              <mxPoint x="780" y="510" />
              <mxPoint x="820" y="490" />
              <mxPoint x="700" y="330" />
            </Array>
          </mxGeometry>
        </mxCell>
        <mxCell id="w8F_jeQvWusTI5VODy6q-4" value="" style="edgeStyle=entityRelationEdgeStyle;fontSize=12;html=1;endArrow=ERzeroToOne;startArrow=ERmandOne;rounded=0;entryX=0;entryY=0.5;entryDx=0;entryDy=0;" parent="1" target="cFsQP5BHmlhc9Tulh3zu-14" edge="1">
          <mxGeometry width="100" height="100" relative="1" as="geometry">
            <mxPoint x="310" y="650" as="sourcePoint" />
            <mxPoint x="410" y="550" as="targetPoint" />
          </mxGeometry>
        </mxCell>
        <mxCell id="338NivXYfjlc3IKWi5lk-49" value="" style="edgeStyle=entityRelationEdgeStyle;fontSize=12;html=1;endArrow=ERzeroToMany;startArrow=ERmandOne;rounded=0;strokeColor=#006658;fontColor=#5C5C5C;startSize=8;endSize=8;fillColor=#21C0A5;entryX=-0.002;entryY=0.134;entryDx=0;entryDy=0;entryPerimeter=0;" parent="1" target="qt74afErLi43HWbwG1_q-114" edge="1">
          <mxGeometry width="100" height="100" relative="1" as="geometry">
            <mxPoint x="681" y="310" as="sourcePoint" />
            <mxPoint x="801" y="85" as="targetPoint" />
          </mxGeometry>
        </mxCell>
        <mxCell id="338NivXYfjlc3IKWi5lk-51" value="" style="edgeStyle=entityRelationEdgeStyle;fontSize=12;html=1;endArrow=ERoneToMany;startArrow=ERmandOne;rounded=0;entryX=0;entryY=0.107;entryDx=0;entryDy=0;entryPerimeter=0;" parent="1" target="qt74afErLi43HWbwG1_q-113" edge="1" source="338NivXYfjlc3IKWi5lk-27">
          <mxGeometry width="100" height="100" relative="1" as="geometry">
            <mxPoint x="681" y="150" as="sourcePoint" />
            <mxPoint x="781" y="50" as="targetPoint" />
          </mxGeometry>
        </mxCell>
        <mxCell id="cFsQP5BHmlhc9Tulh3zu-3" value="Dishes" style="shape=table;startSize=30;container=1;collapsible=1;childLayout=tableLayout;fixedRows=1;rowLines=0;fontStyle=1;align=center;resizeLast=1;labelBackgroundColor=none;fillColor=#21C0A5;strokeColor=#006658;fontColor=#5C5C5C;" parent="1" vertex="1">
          <mxGeometry x="430" y="40" width="251" height="130" as="geometry" />
        </mxCell>
        <mxCell id="cFsQP5BHmlhc9Tulh3zu-4" value="" style="shape=partialRectangle;collapsible=0;dropTarget=0;pointerEvents=0;fillColor=none;points=[[0,0.5],[1,0.5]];portConstraint=eastwest;top=0;left=0;right=0;bottom=1;labelBackgroundColor=none;strokeColor=#006658;fontColor=#5C5C5C;" parent="cFsQP5BHmlhc9Tulh3zu-3" vertex="1">
          <mxGeometry y="30" width="251" height="30" as="geometry" />
        </mxCell>
        <mxCell id="cFsQP5BHmlhc9Tulh3zu-5" value="PK" style="shape=partialRectangle;overflow=hidden;connectable=0;fillColor=none;top=0;left=0;bottom=0;right=0;fontStyle=1;labelBackgroundColor=none;strokeColor=#006658;fontColor=#5C5C5C;" parent="cFsQP5BHmlhc9Tulh3zu-4" vertex="1">
          <mxGeometry width="30" height="30" as="geometry">
            <mxRectangle width="30" height="30" as="alternateBounds" />
          </mxGeometry>
        </mxCell>
        <mxCell id="QDBqpaRgIIuY31XScvG4-29" value="int" style="shape=partialRectangle;overflow=hidden;connectable=0;fillColor=none;top=0;left=0;bottom=0;right=0;align=left;spacingLeft=6;fontStyle=5;labelBackgroundColor=none;strokeColor=#006658;fontColor=#5C5C5C;" parent="cFsQP5BHmlhc9Tulh3zu-4" vertex="1">
          <mxGeometry x="30" width="61" height="30" as="geometry">
            <mxRectangle width="61" height="30" as="alternateBounds" />
          </mxGeometry>
        </mxCell>
        <mxCell id="cFsQP5BHmlhc9Tulh3zu-6" value="id" style="shape=partialRectangle;overflow=hidden;connectable=0;fillColor=none;top=0;left=0;bottom=0;right=0;align=left;spacingLeft=6;fontStyle=5;labelBackgroundColor=none;strokeColor=#006658;fontColor=#5C5C5C;" parent="cFsQP5BHmlhc9Tulh3zu-4" vertex="1">
          <mxGeometry x="91" width="160" height="30" as="geometry">
            <mxRectangle width="160" height="30" as="alternateBounds" />
          </mxGeometry>
        </mxCell>
        <mxCell id="qt74afErLi43HWbwG1_q-237" value="" style="shape=partialRectangle;collapsible=0;dropTarget=0;pointerEvents=0;fillColor=none;points=[[0,0.5],[1,0.5]];portConstraint=eastwest;top=0;left=0;right=0;bottom=0;labelBackgroundColor=none;strokeColor=#006658;fontColor=#5C5C5C;" parent="cFsQP5BHmlhc9Tulh3zu-3" vertex="1">
          <mxGeometry y="60" width="251" height="20" as="geometry" />
        </mxCell>
        <mxCell id="qt74afErLi43HWbwG1_q-238" value="" style="shape=partialRectangle;overflow=hidden;connectable=0;fillColor=none;top=0;left=0;bottom=0;right=0;labelBackgroundColor=none;strokeColor=#006658;fontColor=#5C5C5C;" parent="qt74afErLi43HWbwG1_q-237" vertex="1">
          <mxGeometry width="30" height="20" as="geometry">
            <mxRectangle width="30" height="20" as="alternateBounds" />
          </mxGeometry>
        </mxCell>
        <mxCell id="qt74afErLi43HWbwG1_q-239" value="strind" style="shape=partialRectangle;overflow=hidden;connectable=0;fillColor=none;top=0;left=0;bottom=0;right=0;align=left;spacingLeft=6;labelBackgroundColor=none;strokeColor=#006658;fontColor=#5C5C5C;" parent="qt74afErLi43HWbwG1_q-237" vertex="1">
          <mxGeometry x="30" width="61" height="20" as="geometry">
            <mxRectangle width="61" height="20" as="alternateBounds" />
          </mxGeometry>
        </mxCell>
        <mxCell id="qt74afErLi43HWbwG1_q-240" value="name" style="shape=partialRectangle;overflow=hidden;connectable=0;fillColor=none;top=0;left=0;bottom=0;right=0;align=left;spacingLeft=6;labelBackgroundColor=none;strokeColor=#006658;fontColor=#5C5C5C;" parent="qt74afErLi43HWbwG1_q-237" vertex="1">
          <mxGeometry x="91" width="160" height="20" as="geometry">
            <mxRectangle width="160" height="20" as="alternateBounds" />
          </mxGeometry>
        </mxCell>
        <mxCell id="qt74afErLi43HWbwG1_q-241" value="" style="shape=partialRectangle;collapsible=0;dropTarget=0;pointerEvents=0;fillColor=none;points=[[0,0.5],[1,0.5]];portConstraint=eastwest;top=0;left=0;right=0;bottom=0;labelBackgroundColor=none;strokeColor=#006658;fontColor=#5C5C5C;" parent="cFsQP5BHmlhc9Tulh3zu-3" vertex="1">
          <mxGeometry y="80" width="251" height="20" as="geometry" />
        </mxCell>
        <mxCell id="qt74afErLi43HWbwG1_q-242" value="" style="shape=partialRectangle;overflow=hidden;connectable=0;fillColor=none;top=0;left=0;bottom=0;right=0;labelBackgroundColor=none;strokeColor=#006658;fontColor=#5C5C5C;" parent="qt74afErLi43HWbwG1_q-241" vertex="1">
          <mxGeometry width="30" height="20" as="geometry">
            <mxRectangle width="30" height="20" as="alternateBounds" />
          </mxGeometry>
        </mxCell>
        <mxCell id="qt74afErLi43HWbwG1_q-243" value="datetime" style="shape=partialRectangle;overflow=hidden;connectable=0;fillColor=none;top=0;left=0;bottom=0;right=0;align=left;spacingLeft=6;labelBackgroundColor=none;strokeColor=#006658;fontColor=#5C5C5C;" parent="qt74afErLi43HWbwG1_q-241" vertex="1">
          <mxGeometry x="30" width="61" height="20" as="geometry">
            <mxRectangle width="61" height="20" as="alternateBounds" />
          </mxGeometry>
        </mxCell>
        <mxCell id="qt74afErLi43HWbwG1_q-244" value="created_at" style="shape=partialRectangle;overflow=hidden;connectable=0;fillColor=none;top=0;left=0;bottom=0;right=0;align=left;spacingLeft=6;labelBackgroundColor=none;strokeColor=#006658;fontColor=#5C5C5C;" parent="qt74afErLi43HWbwG1_q-241" vertex="1">
          <mxGeometry x="91" width="160" height="20" as="geometry">
            <mxRectangle width="160" height="20" as="alternateBounds" />
          </mxGeometry>
        </mxCell>
        <mxCell id="338NivXYfjlc3IKWi5lk-27" value="" style="shape=partialRectangle;collapsible=0;dropTarget=0;pointerEvents=0;fillColor=none;points=[[0,0.5],[1,0.5]];portConstraint=eastwest;top=0;left=0;right=0;bottom=0;labelBackgroundColor=none;strokeColor=#006658;fontColor=#5C5C5C;" parent="cFsQP5BHmlhc9Tulh3zu-3" vertex="1">
          <mxGeometry y="100" width="251" height="20" as="geometry" />
        </mxCell>
        <mxCell id="338NivXYfjlc3IKWi5lk-28" value="" style="shape=partialRectangle;overflow=hidden;connectable=0;fillColor=none;top=0;left=0;bottom=0;right=0;labelBackgroundColor=none;strokeColor=#006658;fontColor=#5C5C5C;" parent="338NivXYfjlc3IKWi5lk-27" vertex="1">
          <mxGeometry width="30" height="20" as="geometry">
            <mxRectangle width="30" height="20" as="alternateBounds" />
          </mxGeometry>
        </mxCell>
        <mxCell id="338NivXYfjlc3IKWi5lk-29" value="datetime" style="shape=partialRectangle;overflow=hidden;connectable=0;fillColor=none;top=0;left=0;bottom=0;right=0;align=left;spacingLeft=6;labelBackgroundColor=none;strokeColor=#006658;fontColor=#5C5C5C;" parent="338NivXYfjlc3IKWi5lk-27" vertex="1">
          <mxGeometry x="30" width="61" height="20" as="geometry">
            <mxRectangle width="61" height="20" as="alternateBounds" />
          </mxGeometry>
        </mxCell>
        <mxCell id="338NivXYfjlc3IKWi5lk-30" value="updated_at" style="shape=partialRectangle;overflow=hidden;connectable=0;fillColor=none;top=0;left=0;bottom=0;right=0;align=left;spacingLeft=6;labelBackgroundColor=none;strokeColor=#006658;fontColor=#5C5C5C;" parent="338NivXYfjlc3IKWi5lk-27" vertex="1">
          <mxGeometry x="91" width="160" height="20" as="geometry">
            <mxRectangle width="160" height="20" as="alternateBounds" />
          </mxGeometry>
        </mxCell>
      </root>
    </mxGraphModel>
  </diagram>
</mxfile>
